<svg xmlns="http://www.w3.org/2000/svg" width="212" height="213" viewBox="0 0 212 213" fill="none">
  <path d="M10.7604 -3.70581H203.433C210.985 -3.70581 217.097 2.40612 217.097 9.95787V202.63C217.097 210.182 210.985 216.294 203.433 216.294H10.7604C3.20861 216.294 -2.90332 210.182 -2.90332 202.63V9.95787C-2.90332 2.40612 3.20861 -3.70581 10.7604 -3.70581Z" fill="#FFCD00"/>
  <path d="M136.731 146.213C136.731 146.213 176.576 150.65 176.576 211.857" stroke="#EF353B" stroke-width="11.7537" stroke-miterlimit="10"/>
  <path d="M138.435 140.071H94.3296V211.857H138.435V140.071Z" fill="#EF353B"/>
  <path d="M94.3296 149.886C94.3296 149.886 33.6218 149.562 29.0966 107.19C25.2766 71.459 63.8876 57.8247 63.8876 57.8247" stroke="#EF353B" stroke-width="11.7537" stroke-miterlimit="10"/>
  <path d="M134.468 140.924L113.929 186.44L98.414 145.743L134.468 140.924Z" fill="white"/>
  <mask id="mask0_1292_1146" style="mask-type:alpha" maskUnits="userSpaceOnUse" x="98" y="145" width="33" height="42">
    <path d="M130.415 149.886L113.93 186.44L98.4152 145.743L130.415 149.886Z" fill="white"/>
  </mask>
  <g mask="url(#mask0_1292_1146)">
    <path d="M130.414 124.733L113.929 161.287L98.4141 120.59L130.414 124.733Z" fill="#333333"/>
    <path d="M98.4142 208.537L114.899 146.624L130.414 215.589L98.4142 208.537Z" fill="#333333"/>
  </g>
  <path d="M68.9121 59.1176C68.9121 59.1176 77.0809 75.8079 86.2488 74.9851" stroke="#D16F36" stroke-width="6.1707" stroke-miterlimit="10" stroke-linecap="round"/>
  <path d="M93.6535 96.2889C102.806 96.2889 110.226 88.869 110.226 79.7161C110.226 70.5633 102.806 63.1434 93.6535 63.1434C84.5006 63.1434 77.0808 70.5633 77.0808 79.7161C77.0808 88.869 84.5006 96.2889 93.6535 96.2889Z" fill="#A87A54"/>
  <path d="M101.323 86.4745C102.783 86.4745 103.967 85.2905 103.967 83.8299C103.967 82.3693 102.783 81.1853 101.323 81.1853C99.8623 81.1853 98.6783 82.3693 98.6783 83.8299C98.6783 85.2905 99.8623 86.4745 101.323 86.4745Z" fill="#534741"/>
  <path d="M102.351 78.5406C103.423 78.5406 104.291 77.6723 104.291 76.6013C104.291 75.5302 103.423 74.6619 102.351 74.6619C101.28 74.6619 100.412 75.5302 100.412 76.6013C100.412 77.6723 101.28 78.5406 102.351 78.5406Z" fill="#534741"/>
  <path d="M90.4214 70.1073C91.4925 70.1073 92.3608 69.239 92.3608 68.1679C92.3608 67.0968 91.4925 66.2285 90.4214 66.2285C89.3503 66.2285 88.482 67.0968 88.482 68.1679C88.482 69.239 89.3503 70.1073 90.4214 70.1073Z" fill="#534741"/>
  <path d="M93.653 84.4469C94.7241 84.4469 95.5923 83.5786 95.5923 82.5075C95.5923 81.4365 94.7241 80.5682 93.653 80.5682C92.5819 80.5682 91.7136 81.4365 91.7136 82.5075C91.7136 83.5786 92.5819 84.4469 93.653 84.4469Z" fill="#534741"/>
  <path d="M86.248 79.7161C87.5625 79.7161 88.6281 78.6505 88.6281 77.336C88.6281 76.0215 87.5625 74.9558 86.248 74.9558C84.9335 74.9558 83.8679 76.0215 83.8679 77.336C83.8679 78.6505 84.9335 79.7161 86.248 79.7161Z" fill="#534741"/>
  <path d="M95.4464 78.5405C96.6635 78.5405 97.6502 77.5538 97.6502 76.3366C97.6502 75.1195 96.6635 74.1328 95.4464 74.1328C94.2292 74.1328 93.2426 75.1195 93.2426 76.3366C93.2426 77.5538 94.2292 78.5405 95.4464 78.5405Z" fill="#534741"/>
  <path d="M87.6 90.353C89.0119 90.353 90.1565 89.2084 90.1565 87.7966C90.1565 86.3847 89.0119 85.2401 87.6 85.2401C86.1882 85.2401 85.0436 86.3847 85.0436 87.7966C85.0436 89.2084 86.1882 90.353 87.6 90.353Z" fill="#534741"/>
  <path d="M74.26 53.9167C74.26 53.9167 82.8989 43.691 90.4213 51.0665C97.9437 58.4419 94.3294 68.1681 94.3294 68.1681" stroke="#D16F36" stroke-width="6.1707" stroke-miterlimit="10" stroke-linecap="round"/>
  <path d="M71.7621 50.8901C71.7621 50.8901 92.243 32.76 106.818 44.0142" stroke="#D16F36" stroke-width="6.1707" stroke-miterlimit="10" stroke-linecap="round"/>
  <path d="M71.7621 48.3924C71.7621 48.3924 83.0751 30.6149 100.412 31.6139" stroke="#D16F36" stroke-width="6.1707" stroke-miterlimit="10" stroke-linecap="round"/>
  <path d="M66.061 51.7128C66.061 51.7128 71.5853 30.0566 87.6291 23.7096" stroke="#D16F36" stroke-width="6.1707" stroke-miterlimit="10" stroke-linecap="round"/>
  <path d="M63.7402 63.1432L70.9099 67.0513L74.8768 63.5252C74.8768 63.5252 73.7896 60.146 77.5801 54.5336C81.3413 48.9212 65.2975 45.0131 65.2975 45.0131C65.2975 45.0131 61.6539 55.8853 60.7136 56.0322C59.7439 56.1791 63.7402 63.1432 63.7402 63.1432Z" fill="#D16F36"/>
  <path d="M139.668 113.919L122.596 81.5967C120.51 77.6298 122.008 72.7227 125.975 70.607L126.563 70.2838C130.53 68.1975 135.437 69.6961 137.553 73.663L154.625 105.986C156.711 109.953 155.213 114.86 151.246 116.975L150.658 117.299C146.691 119.414 141.784 117.886 139.668 113.919Z" fill="#D16F36"/>
  <path d="M143.87 76.7778L115.984 92.8804L122.596 105.398C126.004 111.863 123.536 119.914 117.072 123.323C110.607 126.731 102.556 124.263 99.1471 117.798L93.1821 106.544C85.6597 114.537 83.6616 126.731 89.0683 136.957C95.8855 149.857 111.841 154.793 124.741 147.976L168.523 123.469L143.87 76.7778Z" fill="#D16F36"/>
  <path d="M145.221 134.018L139.286 122.764C137.317 119.032 138.757 114.448 142.459 112.48L145.897 110.658C149.629 108.689 154.213 110.129 156.182 113.831L162.117 125.086C164.086 128.817 162.646 133.401 158.944 135.37L155.506 137.192C151.803 139.161 147.19 137.75 145.221 134.018Z" fill="#D16F36"/>
  <path d="M146.397 130.404L140.991 120.178L152.127 114.302L157.534 124.527C159.15 127.613 157.975 131.433 154.889 133.049C151.833 134.665 148.013 133.489 146.397 130.404Z" fill="#C26629"/>
  <path d="M144.37 133.225L137.935 121.001L154.978 111.98L161.442 124.204L144.37 133.225Z" fill="url(#paint0_linear_1292_1146)"/>
  <path d="M147.25 127.142L144.899 122.676C143.87 120.707 144.605 118.268 146.574 117.24C148.543 116.211 150.981 116.946 152.01 118.915L154.361 123.381C155.389 125.35 154.655 127.789 152.686 128.817C150.717 129.875 148.278 129.111 147.25 127.142Z" fill="url(#paint1_linear_1292_1146)"/>
  <path d="M162.765 126.701C162.765 126.701 160.737 113.684 148.396 117.798L142.724 115.095C142.724 115.095 159.238 105.868 154.978 97.8167C150.717 89.7654 143.87 76.7775 143.87 76.7775C143.87 76.7775 165.497 63.8191 177.339 86.445C189.181 109.071 168.553 123.469 168.553 123.469L162.765 126.701Z" fill="#42210B"/>
  <defs>
    <linearGradient id="paint0_linear_1292_1146" x1="153.137" y1="129.564" x2="146.814" y2="117.413" gradientUnits="userSpaceOnUse">
      <stop stop-color="#D16F36" stop-opacity="0"/>
      <stop offset="0.5119" stop-color="#D16F36"/>
    </linearGradient>
    <linearGradient id="paint1_linear_1292_1146" x1="144.502" y1="122.751" x2="154.681" y2="122.238" gradientUnits="userSpaceOnUse">
      <stop stop-color="#D16F36" stop-opacity="0"/>
      <stop offset="0.5119" stop-color="#D16F36"/>
    </linearGradient>
  </defs>
</svg>
